<svg xmlns="http://www.w3.org/2000/svg" viewBox="0 0 59 51.79"><title>forum</title><g id="Layer_2" data-name="Layer 2"><g id="Layer_1-2" data-name="Layer 1"><path id="forum" d="M45.07,0H27.36A13.94,13.94,0,0,0,14.11,9.64h-.18A14,14,0,0,0,0,23.57v7.14A14,14,0,0,0,10,44.06v5.23a2.51,2.51,0,0,0,1.25,2.16,2.5,2.5,0,0,0,2.5,0L25.6,44.64h4A13.82,13.82,0,0,0,40.7,39.18l4.59,2.63a2.53,2.53,0,0,0,2.5,0A2.51,2.51,0,0,0,49,39.64V34.42A14,14,0,0,0,59,21.07V13.93A14,14,0,0,0,45.07,0ZM29.64,39.64H24.93l-.15,0-.25,0-.25.06-.22.07-.25.11-.12,0L15,45V42.05A.28.28,0,0,0,15,42a2.11,2.11,0,0,0,0-.26,2,2,0,0,0,0-.24,38418124907653.5,38418124907653.5,0,0,0-.16-.46l-.12-.21a1.37,1.37,0,0,0-.13-.2.9.9,0,0,0-.15-.19l-.16-.17L14,40.08a1.33,1.33,0,0,0-.19-.14l-.21-.12-.23-.1-.22-.07-.26-.06-.09,0A8.93,8.93,0,0,1,5,30.71V23.57a8.93,8.93,0,0,1,8.43-8.9v6.4A14,14,0,0,0,27.36,35h6l2.9,1.66A8.86,8.86,0,0,1,29.64,39.64ZM44.21,24.75h-16a2.5,2.5,0,0,1,0-5h16a2.5,2.5,0,1,1,0,5Zm0-9.5h-16a2.5,2.5,0,0,1,0-5h16a2.5,2.5,0,0,1,0,5Z"/></g></g></svg>